<?xml version="1.0" encoding="utf-8"?>
<!-- Generator: Adobe Illustrator 17.0.0, SVG Export Plug-In . SVG Version: 6.00 Build 0)  -->
<!DOCTYPE svg PUBLIC "-//W3C//DTD SVG 1.1//EN" "http://www.w3.org/Graphics/SVG/1.1/DTD/svg11.dtd">
<svg version="1.1" id="Layer_1" xmlns="http://www.w3.org/2000/svg" xmlns:xlink="http://www.w3.org/1999/xlink" x="0px" y="0px"
	 width="283.465px" height="283.464px" viewBox="0 0 283.465 283.464" enable-background="new 0 0 283.465 283.464"
	 xml:space="preserve">
<g id="Facebook" display="none">
	<path display="inline" fill="#FFFFFF" d="M82.732,100.532h27V88.283v-12v-2.001c0-11.55,0.298-29.4,8.698-40.449
		c8.85-11.702,21-19.65,41.901-19.65c34.048,0,48.4,4.849,48.4,4.849l-6.75,40.001c0,0-11.25-3.251-21.75-3.251
		s-19.9,3.75-19.9,14.25v4.25v14.001v12.249h43.048l-3,39.05h-40.048v135.7h-50.6v-135.7h-27v-39.05L82.732,100.532L82.732,100.532z
		"/>
</g>
<g id="Twitter" display="none">
	<path display="inline" fill="#FFFFFF" d="M270.232,67.508c-9.161,4.063-19.007,6.809-29.34,8.044
		c10.546-6.322,18.646-16.333,22.461-28.263c-9.871,5.855-20.804,10.106-32.44,12.396c-9.318-9.928-22.595-16.131-37.288-16.131
		c-28.212,0-51.085,22.872-51.085,51.084c0,4.003,0.451,7.903,1.322,11.642c-42.456-2.131-80.1-22.468-105.295-53.376
		c-4.397,7.545-6.917,16.32-6.917,25.683c0,17.724,9.018,33.359,22.726,42.521c-8.374-0.266-16.251-2.564-23.138-6.391
		c-0.005,0.214-0.005,0.427-0.005,0.643c0,24.751,17.609,45.398,40.978,50.092c-4.286,1.167-8.799,1.792-13.458,1.792
		c-3.292,0-6.492-0.321-9.612-0.917c6.501,20.295,25.368,35.066,47.721,35.478c-17.483,13.702-39.51,21.868-63.445,21.868
		c-4.124,0-8.189-0.241-12.186-0.715c22.607,14.494,49.46,22.954,78.309,22.954c93.965,0,145.349-77.844,145.349-145.351
		c0-2.214-0.05-4.417-0.148-6.609C254.724,86.75,263.384,77.752,270.232,67.508z"/>
</g>
<path fill="#313131" d="M170.407,56.053h14.434v59.503c0,1.841,0.3,3.171,0.905,3.995c0.604,0.824,1.584,1.236,2.938,1.236
	c1.065,0,2.403-0.546,4.025-1.635c1.619-1.092,3.105-2.484,4.461-4.18V56.053h14.432v77.623H197.17v-8.569
	c-2.659,3.158-5.427,5.563-8.304,7.215c-2.877,1.649-5.671,2.476-8.376,2.476c-3.337,0-5.854-1.153-7.546-3.465
	c-1.692-2.31-2.538-5.778-2.538-10.399V56.053H170.407z"/>
<polygon fill="#313131" points="78.862,28.45 89.408,70.511 90.429,70.511 100.485,28.45 116.999,28.45 98.085,90.014 
	98.085,133.677 81.829,133.677 81.829,91.979 62.492,28.45 "/>
<g>
	<path fill="#313131" d="M152.437,59.728c-3.814-3.757-8.708-5.637-14.68-5.637c-6.56,0-11.78,1.782-15.665,5.347
		c-3.886,3.563-5.828,8.349-5.828,14.361v40.24c0,6.595,1.895,11.845,5.684,15.747c3.786,3.902,8.839,5.853,15.153,5.853
		c6.556,0,11.707-1.89,15.446-5.672c3.738-3.781,5.613-8.993,5.613-15.638V74.238C158.16,68.321,156.251,63.485,152.437,59.728z
		 M143.447,115.493c0,2.087-0.575,3.724-1.726,4.913c-1.149,1.188-2.703,1.783-4.659,1.783h-0.001h-0.001
		c-1.91,0-3.377-0.581-4.405-1.746c-1.029-1.164-1.54-2.812-1.542-4.95V73.217c0-1.697,0.549-3.067,1.651-4.109
		c1.102-1.043,2.533-1.566,4.295-1.566h0.001h0.001c1.909,0,3.449,0.523,4.622,1.566c1.174,1.042,1.764,2.412,1.764,4.109V115.493z"
		/>
	<path fill="#313131" d="M131.116,115.493V73.217h-0.001c0-1.696,0.549-3.067,1.651-4.109c1.102-1.043,2.533-1.566,4.294-1.566
		h-0.001c-1.762,0-3.193,0.523-4.295,1.566c-1.102,1.042-1.651,2.412-1.651,4.109v42.276c0.002,2.138,0.513,3.786,1.542,4.95
		c1.028,1.165,2.495,1.746,4.405,1.746h0.001c-1.909,0-3.376-0.581-4.404-1.746C131.628,119.279,131.116,117.631,131.116,115.493z"
		/>
	<path fill="#313131" d="M137.061,67.542C137.061,67.542,137.06,67.542,137.061,67.542c1.908,0,3.448,0.523,4.62,1.566
		c1.175,1.042,1.764,2.413,1.764,4.109v42.276c0,2.087-0.575,3.724-1.726,4.913c-1.149,1.189-2.702,1.783-4.658,1.783h0.001
		c1.956,0,3.51-0.595,4.659-1.783c1.151-1.189,1.726-2.826,1.726-4.913V73.217c0-1.697-0.59-3.067-1.764-4.109
		C140.51,68.065,138.97,67.542,137.061,67.542z"/>
</g>
<g>
	<path fill="#313131" d="M206.091,268.065L206.091,268.065c17.482,0,31.653-13.431,31.653-30h-0.001
		C237.743,254.634,223.572,268.065,206.091,268.065z"/>
	<path fill="#313131" d="M237.744,185.065c0-16.569-14.171-30-31.652-30h-0.001C223.572,155.065,237.743,168.496,237.744,185.065z"
		/>
	<path fill="#313131" d="M162.516,199.652c-0.833,0-1.656,0.208-2.468,0.617c-0.815,0.414-1.616,1.052-2.41,1.916v38.258
		c0.949,1.023,1.871,1.761,2.765,2.21c0.893,0.453,1.834,0.677,2.827,0.677c1.428,0,2.478-0.44,3.152-1.324
		c0.673-0.883,1.012-2.328,1.012-4.332l0.002-31.546c0-2.117-0.416-3.725-1.252-4.825
		C165.312,200.203,164.1,199.652,162.516,199.652z"/>
	<path fill="#313131" d="M205.479,199.88c-1.859,0-3.194,0.569-4.003,1.71c-0.813,1.14-1.218,3.023-1.218,5.654v5.457h10.325v-5.457
		c0-2.631-0.407-4.514-1.217-5.654C208.552,200.45,207.258,199.88,205.479,199.88z"/>
	<path fill="#313131" d="M206.091,155.065H77.374c-17.481,0-31.652,13.431-31.652,30v53c0,16.569,14.171,30,31.652,30h128.717
		c17.481,0,31.652-13.431,31.652-30h0.001v-53C237.743,168.496,223.572,155.065,206.091,155.065z M87.632,252.405v0.906h-13.16
		v-0.906v-71.924H60.858v-0.908v-11.458v-0.908h40.387v0.908v11.459v0.907H87.632V252.405z M134.437,190.462v61.942v0.908h-11.685
		v-0.908v-6.028c-2.153,2.555-4.392,4.504-6.724,5.842c-2.327,1.334-4.587,2.002-6.78,2.002c-2.7,0-4.737-0.934-6.107-2.805
		c-1.37-1.87-2.055-4.677-2.055-8.418v-0.911v-51.624v-0.906h11.683v0.906v47.273c0,1.49,0.245,2.569,0.734,3.232
		c0.489,0.669,1.283,1.001,2.378,1.001c0.863,0,1.948-0.44,3.26-1.322c1.312-0.882,2.516-2.008,3.611-3.383v-0.001v-46.8v-0.907
		h11.685V190.462z M179.421,205.425v33.959v0.908c0,4.468-0.917,7.888-2.745,10.258c-1.831,2.374-4.477,3.557-7.939,3.557
		c-2.284,0-4.32-0.46-6.111-1.375c-1.789-0.921-3.453-2.336-4.988-4.249v3.923v0.907h-11.799v-0.907v-84.29v-0.908h11.799v0.908
		v26.517c1.574-1.918,3.245-3.372,5.014-4.374c1.773-0.998,3.564-1.498,5.376-1.498c3.697,0,6.521,1.346,8.469,4.027
		c1.949,2.685,2.924,6.597,2.924,11.73V205.425z M222.607,207.362v15.094v0.906l-22.351-0.001v10.948
		c0,3.306,0.385,5.599,1.157,6.876c0.772,1.284,2.085,1.919,3.949,1.919c1.935,0,3.289-0.541,4.062-1.621
		c0.771-1.082,1.157-3.475,1.157-7.173v-3.461v-0.905h12.024v0.905v3.814v0.907c0,6.443-1.463,11.296-4.391,14.553
		c-2.929,3.261-7.302,4.891-13.119,4.891c-5.229,0-9.347-1.73-12.353-5.184c-3.006-3.456-4.512-8.209-4.512-14.26v-0.907v-27.301
		v-0.907c0-5.456,1.651-9.9,4.956-13.334c3.299-3.433,7.565-5.151,12.793-5.151c5.347,0,9.456,1.589,12.324,4.769
		c2.869,3.18,4.304,7.75,4.304,13.716V207.362z"/>
	<rect x="122.752" y="189.555" fill="#313131" width="11.685" height="0.907"/>
	<path fill="#313131" d="M166.382,242.006c-0.674,0.884-1.724,1.324-3.152,1.324c-0.993,0-1.934-0.224-2.827-0.677
		c-0.894-0.449-1.816-1.187-2.765-2.21v0.906c0.949,1.023,1.871,1.762,2.765,2.212c0.893,0.452,1.834,0.676,2.827,0.676
		c1.428,0,2.478-0.441,3.152-1.323c0.673-0.883,1.012-2.328,1.012-4.33l0.002-32.455v-0.001l-0.002,31.546
		C167.394,239.678,167.055,241.123,166.382,242.006z"/>
	<rect x="145.839" y="167.208" fill="#313131" width="11.799" height="0.908"/>
	<rect x="60.858" y="167.207" fill="#313131" width="40.387" height="0.908"/>
	<rect x="101.086" y="189.556" fill="#313131" width="11.683" height="0.906"/>
	<path fill="#313131" d="M113.503,241.877c0.489,0.666,1.283,0.998,2.378,0.998c0.863,0,1.948-0.439,3.26-1.321
		c1.312-0.881,2.517-2.01,3.612-3.384h-0.001v-0.907c-1.095,1.375-2.299,2.501-3.611,3.383c-1.312,0.882-2.397,1.322-3.26,1.322
		c-1.095,0-1.889-0.332-2.378-1.001c-0.489-0.663-0.734-1.742-0.734-3.232v0.907C112.769,240.133,113.014,241.21,113.503,241.877z"
		/>
	<path fill="#313131" d="M201.413,242.091c0.772,1.283,2.085,1.918,3.949,1.918c1.935,0,3.289-0.54,4.062-1.621
		c0.771-1.08,1.157-3.471,1.157-7.172v-0.906c0,3.698-0.386,6.091-1.157,7.173c-0.773,1.08-2.127,1.621-4.062,1.621
		c-1.864,0-3.177-0.635-3.949-1.919c-0.772-1.277-1.157-3.57-1.157-6.876v0.906C200.256,238.521,200.641,240.814,201.413,242.091z"
		/>
	<rect x="210.581" y="229.944" fill="#313131" width="12.024" height="0.905"/>
	<rect x="200.258" y="212.701" fill="#313131" width="10.325" height="0.906"/>
	<path fill="#313131" d="M205.979,187.97c-5.228,0-9.494,1.718-12.793,5.151c-3.305,3.434-4.956,7.878-4.956,13.334v0.907
		c0-5.456,1.651-9.899,4.956-13.334c3.299-3.434,7.565-5.152,12.793-5.152c5.347,0,9.456,1.589,12.324,4.768
		c2.869,3.182,4.304,7.753,4.304,13.718v-0.907c0-5.966-1.435-10.536-4.304-13.716C215.435,189.559,211.326,187.97,205.979,187.97z"
		/>
	<path fill="#313131" d="M168.028,188.761c-1.812,0-3.603,0.5-5.376,1.498c-1.769,1.002-3.44,2.456-5.014,4.374v0.908
		c1.574-1.916,3.245-3.374,5.014-4.375c1.773-0.999,3.564-1.496,5.376-1.496c3.697,0,6.521,1.345,8.469,4.029
		c1.949,2.681,2.924,6.593,2.924,11.726v-0.907c0-5.133-0.975-9.045-2.924-11.73C174.549,190.107,171.725,188.761,168.028,188.761z"
		/>
	<rect x="87.632" y="179.574" fill="#313131" width="13.613" height="0.907"/>
	<rect x="122.752" y="252.404" fill="#313131" width="11.685" height="0.908"/>
	<rect x="60.858" y="179.573" fill="#313131" width="13.614" height="0.908"/>
	<path fill="#313131" d="M166.144,200.395c-0.832-1.101-2.044-1.651-3.628-1.651c-0.833,0-1.656,0.208-2.468,0.62
		c-0.815,0.414-1.616,1.05-2.41,1.914v0.907c0.794-0.864,1.595-1.502,2.41-1.916c0.812-0.409,1.635-0.617,2.468-0.617
		c1.584,0,2.796,0.551,3.628,1.651c0.836,1.1,1.252,2.707,1.252,4.825v-0.906C167.396,203.103,166.98,201.494,166.144,200.395z"/>
	<path fill="#313131" d="M205.479,198.973c-1.859,0-3.194,0.568-4.003,1.71c-0.813,1.14-1.218,3.024-1.218,5.654v0.907
		c0-2.631,0.405-4.514,1.218-5.654c0.809-1.141,2.144-1.71,4.003-1.71c1.779,0,3.073,0.57,3.887,1.71
		c0.81,1.14,1.217,3.023,1.217,5.654v-0.907c0-2.629-0.407-4.514-1.217-5.654C208.552,199.542,207.258,198.973,205.479,198.973z"/>
	<rect x="74.472" y="252.405" fill="#313131" width="13.16" height="0.906"/>
	<path fill="#313131" d="M205.095,254.107c-5.229,0-9.347-1.73-12.353-5.184c-3.006-3.456-4.512-8.209-4.512-14.26v0.907
		c0,6.051,1.506,10.804,4.512,14.26c3.006,3.454,7.124,5.184,12.353,5.184c5.817,0,10.19-1.63,13.119-4.891
		c2.928-3.257,4.391-8.11,4.391-14.553v-0.907c0,6.442-1.463,11.294-4.391,14.553C215.285,252.475,210.912,254.107,205.095,254.107z
		"/>
	<path fill="#313131" d="M168.737,253.2c-2.284,0-4.32-0.459-6.111-1.378c-1.789-0.919-3.453-2.334-4.988-4.247v0.908
		c1.535,1.913,3.199,3.328,4.988,4.249c1.791,0.915,3.827,1.375,6.111,1.375c3.462,0,6.108-1.183,7.939-3.557
		c1.828-2.37,2.745-5.79,2.745-10.258v-0.908c0,4.468-0.917,7.89-2.745,10.26C174.845,252.016,172.199,253.2,168.737,253.2z"/>
	<rect x="145.839" y="252.406" fill="#313131" width="11.799" height="0.907"/>
	<polygon fill="#313131" points="122.752,237.262 122.752,237.263 122.753,237.262 	"/>
	<rect x="200.256" y="222.455" fill="#313131" width="22.351" height="0.906"/>
	<path fill="#313131" d="M116.028,251.308c-2.327,1.334-4.587,2.003-6.78,2.003c-2.7,0-4.737-0.934-6.107-2.803
		c-1.37-1.875-2.055-4.679-2.055-8.422v0.911c0,3.741,0.685,6.548,2.055,8.418c1.37,1.871,3.407,2.805,6.107,2.805
		c2.193,0,4.453-0.668,6.78-2.002c2.332-1.338,4.571-3.287,6.724-5.842v-0.91C120.599,248.023,118.36,249.97,116.028,251.308z"/>
	<path fill="#313131" d="M167.396,206.129l-0.002,32.455c0,2.002-0.339,3.447-1.012,4.33c-0.674,0.882-1.724,1.323-3.152,1.323
		c-0.993,0-1.934-0.224-2.827-0.676c-0.894-0.45-1.816-1.189-2.765-2.212v-0.906v-38.258v-0.907c0.794-0.864,1.595-1.5,2.41-1.914
		c0.812-0.412,1.635-0.62,2.468-0.62c1.584,0,2.796,0.55,3.628,1.651c0.836,1.099,1.252,2.708,1.252,4.827L167.396,206.129
		C167.396,206.128,167.396,206.129,167.396,206.129z"/>
	<path fill="#313131" d="M210.583,207.244v5.457v0.906h-10.325v-0.906v-5.457v-0.907c0-2.63,0.405-4.514,1.218-5.654
		c0.809-1.142,2.144-1.71,4.003-1.71c1.779,0,3.073,0.569,3.887,1.71c0.81,1.14,1.217,3.025,1.217,5.654V207.244z"/>
</g>
</svg>
